<?xml version="1.0" encoding="iso-8859-1"?>
<!-- Uploaded to: SVG Repo, www.svgrepo.com, Generator: SVG Repo Mixer Tools -->
<svg height="800px" width="800px" version="1.1" id="Layer_1" xmlns="http://www.w3.org/2000/svg" xmlns:xlink="http://www.w3.org/1999/xlink" 
	 viewBox="0 0 512.002 512.002" xml:space="preserve">
<polygon style="fill:#FFC107;" points="182.011,370.104 370.301,500.958 256.003,129.902 141.704,500.958 329.994,370.104 "/>
<g>
	<path style="fill:#231F20;" d="M380.855,497.707L266.556,126.65c-1.427-4.632-5.707-7.793-10.555-7.793
		c-4.847,0-9.128,3.161-10.555,7.793L131.149,497.707c-1.387,4.501,0.234,9.387,4.038,12.168s8.951,2.839,12.819,0.152
		l107.996-75.053l107.996,75.053c1.897,1.318,4.101,1.975,6.303,1.975c2.289,0,4.579-0.711,6.516-2.127
		C380.621,507.095,382.242,502.209,380.855,497.707z M293.305,288.514l-21.861-23.807l10.88-11.841L293.305,288.514z
		 M256.003,167.417l18.79,61.001l-18.343,19.962l-19.011-20.703L256.003,167.417z M229.907,252.13l11.544,12.572l-23.191,25.239
		L229.907,252.13z M256.445,281.03l51.532,55.823H205.15L256.445,281.03z M161.678,473.628l26.438-85.831l48.534,33.728
		L161.678,473.628z M194.942,365.641l2.064-6.701h117.993l2.064,6.701l-61.061,42.434L194.942,365.641z M275.354,421.525
		l48.534-33.728l26.438,85.831L275.354,421.525z"/>
	<path style="fill:#231F20;" d="M149.295,213.416c2.827,0,5.652-1.078,7.809-3.235c4.313-4.313,4.313-11.306,0-15.619
		c-48.443-48.443-48.443-127.264,0-175.707c4.313-4.313,4.313-11.306,0-15.619c-4.314-4.313-11.305-4.313-15.619,0
		c-57.054,57.055-57.054,149.89,0,206.945C143.642,212.338,146.468,213.416,149.295,213.416z"/>
	<path style="fill:#231F20;" d="M354.899,194.562c-4.313,4.313-4.313,11.306,0,15.619c2.157,2.157,4.983,3.235,7.809,3.235
		c2.826,0,5.652-1.078,7.809-3.235c57.054-57.055,57.054-149.89,0-206.945c-4.314-4.313-11.305-4.313-15.619,0
		c-4.313,4.313-4.313,11.306,0,15.619C403.343,67.298,403.343,146.119,354.899,194.562z"/>
	<path style="fill:#231F20;" d="M172.722,178.944c2.157,2.157,4.983,3.235,7.809,3.235s5.652-1.079,7.809-3.235
		c4.313-4.313,4.313-11.306,0-15.618c-31.219-31.219-31.219-82.015,0-113.234c4.313-4.313,4.313-11.306,0-15.618
		c-4.314-4.313-11.305-4.313-15.619,0C132.893,74.304,132.893,139.114,172.722,178.944z"/>
	<path style="fill:#231F20;" d="M323.662,163.326c-4.313,4.313-4.313,11.306,0,15.619c2.157,2.157,4.983,3.235,7.809,3.235
		c2.826,0,5.652-1.078,7.809-3.235c19.267-19.267,29.878-44.921,29.878-72.236s-10.61-52.968-29.878-72.236
		c-4.314-4.313-11.305-4.313-15.619,0c-4.313,4.313-4.313,11.306,0,15.619C354.881,81.311,354.881,132.107,323.662,163.326z"/>
	<path style="fill:#231F20;" d="M203.961,147.708c2.157,2.157,4.983,3.235,7.809,3.235s5.652-1.079,7.809-3.235
		c4.313-4.313,4.313-11.306,0-15.618c-6.78-6.779-10.514-15.793-10.514-25.38s3.734-18.6,10.514-25.379
		c4.313-4.313,4.313-11.306,0-15.618c-4.312-4.313-11.302-4.313-15.619,0c-10.951,10.951-16.982,25.511-16.982,40.998
		C186.978,122.196,193.009,136.756,203.961,147.708z"/>
	<path style="fill:#231F20;" d="M292.426,147.708c2.157,2.157,4.983,3.235,7.809,3.235s5.652-1.079,7.809-3.235
		c10.951-10.951,16.982-25.511,16.982-40.999c0-15.487-6.031-30.047-16.982-40.998c-4.314-4.313-11.305-4.313-15.619,0
		c-4.313,4.313-4.313,11.306,0,15.618c6.78,6.779,10.514,15.793,10.514,25.379c0,9.587-3.734,18.601-10.514,25.38
		C288.113,136.402,288.113,143.395,292.426,147.708z"/>
</g>
</svg>